<?xml version="1.0"?>
<svg version="1.1" id="Layer_1" xmlns="http://www.w3.org/2000/svg" x="0" y="0" viewBox="0 0 100 100" xml:space="preserve"><path fill="none" d="M44.1 11.2l-3.8 6.6h19.4l-3.8-6.6z"/><path d="M66 82c2.3 0 4.1-1.8 4.1-4V34.8c0-2.2-1.8-4-4-4H66c-2.2 0-4 1.8-4 4V78c0 2.2 1.8 4 4 4z" fill="#e0e0e0"/><path d="M50 82c2.3 0 4.1-1.8 4.1-4V34.8c0-2.2-1.8-4-4-4H50c-2.2 0-4 1.8-4 4V78c0 2.2 1.8 4 4 4z" fill="#e0e0e0"/><path d="M33.9 82c2.3 0 4.1-1.8 4.1-4V34.8c0-2.2-1.8-4-4-4h-.1c-2.2 0-4 1.8-4 4V78c0 2.2 1.8 4 4 4z" fill="#e0e0e0"/><path d="M33.9 82c2.3 0 4.1-1.8 4.1-4V34.8c0-2.2-1.8-4-4-4h-.1c-2.2 0-4 1.8-4 4V78c0 2.2 1.8 4 4 4z" fill="none"/><path d="M50 82c2.3 0 4.1-1.8 4.1-4V34.8c0-2.2-1.8-4-4-4H50c-2.2 0-4 1.8-4 4V78c0 2.2 1.8 4 4 4z" fill="none"/><path d="M66 82c2.3 0 4.1-1.8 4.1-4V34.8c0-2.2-1.8-4-4-4H66c-2.2 0-4 1.8-4 4V78c0 2.2 1.8 4 4 4z" fill="none"/><path d="M21.9 27.8v53.3c0 4.9 4 8.9 8.9 8.9h38.4c4.9 0 8.9-4 8.9-8.9V25.8H21.9v2zm40.1 7c0-2.2 1.8-4 4-4h.1c2.2 0 4 1.8 4 4V78c0 2.2-1.8 4-4 4H66c-2.2 0-4-1.8-4-4V34.8zm-16 0c0-2.2 1.8-4 4-4s4 1.8 4 4V78c0 2.2-1.8 4-4 4s-4-1.8-4-4V34.8zm-16.1 0c0-2.2 1.8-4 4-4h.1c2.2 0 4 1.8 4 4V78c0 2.2-1.8 4-4 4h-.1c-2.2 0-4-1.8-4-4V34.8z" fill="#666"/><path fill="none" d="M44.1 11.2l-3.8 6.6h19.4l-3.8-6.6z"/><path d="M44.1 11.2H56l3.8 6.6H67l-3.8-6.6L60.7 7c-.7-1.2-2-2-3.4-2H42.7c-1.4 0-2.7.8-3.4 2l-2.5 4.3-3.8 6.6h7.2l3.9-6.7z" fill="#333"/><path d="M13.9 21.8c0 2.3 1.8 4.1 4 4.1h64.3c2.2 0 4-1.8 4-4v-.1c0-2.2-1.8-4-4-4H17.9c-2.2 0-4 1.8-4 4z" fill="#010101"/><metadata xmlns:d="https://loading.io/stock/"><d:name>trash can</d:name><d:tags>delete,remove,drop,garbage,recycle bin,can,trash can,web application</d:tags><d:license>by</d:license><d:slug>7w5aga</d:slug></metadata></svg>